<svg xmlns="http://www.w3.org/2000/svg" width="20" height="20" viewBox="0 0 20 20"><defs><style>.a{fill:#ff1194;}.b{fill:none;opacity:0.4;}</style></defs><g transform="translate(3)"><path class="a" d="M-185.726-750.735h-.574c-.687-1.728-1.851-2.867-3.169-2.867s-2.482,1.139-3.169,2.867h-.576c-2.2,0-2.768,2.324-3.207,13.1,0,2.335,1.278,4.03,3.037,4.03h7.847a2.736,2.736,0,0,0,2.248-1.264,4.961,4.961,0,0,0,.769-2.8C-182.958-748.414-183.528-750.735-185.726-750.735Zm-3.743-2.045c.954,0,1.808.8,2.375,2.045h-4.75C-191.277-751.984-190.423-752.78-189.47-752.78Zm5.594,17.425a2.028,2.028,0,0,1-1.678.931h-7.831c-1.337,0-2.307-1.349-2.307-3.19.452-11.086,1.134-12.3,2.477-12.3h.3a10.28,10.28,0,0,0-.378,2.792.39.39,0,0,0,.365.411.39.39,0,0,0,.365-.411,9.456,9.456,0,0,1,.406-2.792h5.367a9.455,9.455,0,0,1,.406,2.792.39.39,0,0,0,.365.411.39.39,0,0,0,.365-.411,10.28,10.28,0,0,0-.378-2.792h.3c1.343,0,2.026,1.212,2.477,12.276A4.06,4.06,0,0,1-183.876-735.355Z" transform="translate(196.422 753.602)"/></g><rect class="b" width="20" height="20"/></svg>