<svg xmlns="http://www.w3.org/2000/svg" width="24" height="24" viewBox="0 0 24 24"><defs><style>.a{fill:none;}.b{fill:#FFFFFF;}</style></defs><path class="a" d="M0,0H24V24H0Z"/><path class="a" d="M0,0H24V24H0Z"/><path class="b" d="M9.88,5h4.239l1.235,1.35.6.65H20V17.455l1.956,1.956A1.99,1.99,0,0,0,22,19V7a2.006,2.006,0,0,0-2-2H16.83L15.3,3.325A1,1,0,0,0,14.558,3H9.439a1,1,0,0,0-.736.324L7.349,4.8,8.764,6.22Z"/><path class="b" d="M12,8.032a4.985,4.985,0,0,0-1.247.176l1.9,1.9a3.006,3.006,0,0,1,2.269,2.269l1.9,1.9A4.939,4.939,0,0,0,12,8.032Z"/><path class="b" d="M22.09,22.09,1.91,1.91a.9.9,0,0,0-1.272,0h0a.9.9,0,0,0,0,1.273l2.2,2.2A2,2,0,0,0,2,7V19a2.006,2.006,0,0,0,2,2H18.455l2.362,2.362A.9.9,0,1,0,22.09,22.09ZM9.266,11.811l3.955,3.955A2.955,2.955,0,0,1,12,16.032a3,3,0,0,1-3-3A2.952,2.952,0,0,1,9.266,11.811ZM4,19V7h.455L7.8,10.344A4.952,4.952,0,0,0,7,13.032a5,5,0,0,0,5,5,4.946,4.946,0,0,0,2.687-.8L16.455,19Z"/></svg>