<svg xmlns="http://www.w3.org/2000/svg" width="24" height="24" viewBox="0 0 24 24"><defs><style>.a{fill:none;}.b{fill:#ff1194;}</style></defs><path class="a" d="M110-29h22a1,1,0,0,1,1,1V-6a1,1,0,0,1-1,1H110a1,1,0,0,1-1-1V-28A1,1,0,0,1,110-29Z" transform="translate(-109 29)"/><path class="b" d="M119.794-12.706h0a1,1,0,0,0,1.411,0l3.589-3.588a1,1,0,0,0,0-1.412l-3.589-3.588a1,1,0,0,0-1.411,0h0a1,1,0,0,0,0,1.41L121.67-18H113a1,1,0,0,0-1,1v0a1,1,0,0,0,1,1h8.672l-1.877,1.884A1,1,0,0,0,119.794-12.706ZM127-26H114a2,2,0,0,0-2,2v3a1,1,0,0,0,1,1h0a1,1,0,0,0,1-1v-2a1,1,0,0,1,1-1h12a1,1,0,0,1,1,1v12a1,1,0,0,1-1,1H115a1,1,0,0,1-1-1v-2a1,1,0,0,0-1-1h0a1,1,0,0,0-1,1v2a3,3,0,0,0,3,3h12a3.007,3.007,0,0,0,3-3V-23A3.007,3.007,0,0,0,127-26Z" transform="translate(-109 29)"/></svg>