<svg xmlns="http://www.w3.org/2000/svg" xmlns:xlink="http://www.w3.org/1999/xlink" width="250" height="250" viewBox="0 0 250 250"><defs><style>.a,.c,.g,.h,.l,.o,.p{fill:none;}.b{fill:#d9d9d9;}.c{stroke:#eb0043;}.c,.g,.o{stroke-linecap:round;}.c,.g,.h,.l,.o,.p{stroke-miterlimit:10;}.c,.o{stroke-width:0.5px;}.d{fill:#edac82;}.e{fill:#fff;}.f{fill:#f1f1f1;}.g,.l{stroke:#464646;}.g{stroke-width:0.25px;}.h{stroke:#1d1d1b;stroke-width:3px;}.i,.n{fill:#1a1a1a;}.i{opacity:0.1;}.j{clip-path:url(#a);}.k{fill:#d3bd67;}.m{fill:#ffcb00;}.o{stroke:#1a1a1a;}.p{stroke:#fff;}.q{fill:#1d1d1b;}</style><clipPath id="a"><rect class="a" width="250" height="250"/></clipPath></defs><g transform="translate(-55 -237)"><g transform="translate(55 237)"><path class="b" d="M243.336,158.14c-13.624,50.919-52.31,91.6-133.319,91.859C9.162,250.319,1.007,179.824.009,111.515-1.144,32.643,113.893,7.865,176.517.463,244.8-7.609,261.112,91.708,243.336,158.14Z"/></g><g transform="translate(55 237)"><line class="c" x2="20.199" transform="translate(168.739 115.444)"/><path class="d" d="M208.785,169.3c.868.435,35.353,75.217,35.353,75.217l-31,2.443L189.36,187.448s-24.257-10.425-28.818-21.285.171-29.484.171-29.484-8.346-7.113-5.306-11.891c0,0,4.191-6.842,19.39,10.528Z"/><rect class="e" width="35.342" height="42.581" transform="translate(161.611 123.459)"/><rect class="e" width="34.789" height="6.905" transform="translate(161.611 100.524)"/><circle class="f" cx="7.167" cy="7.167" r="7.167" transform="translate(171.773 134.103)"/><line class="g" x2="19.207" transform="translate(169.337 151.37)"/><line class="g" x2="3.794" transform="translate(164.478 102.561)"/><line class="g" x2="3.794" transform="translate(164.478 103.887)"/><line class="g" x2="3.794" transform="translate(164.478 105.393)"/><path class="h" d="M2,0H34.936a2,2,0,0,1,2,2V67.508a1,1,0,0,1-1,1H2a2,2,0,0,1-2-2V2A2,2,0,0,1,2,0Z" transform="translate(160.542 98.958)"/><path class="d" d="M191.526,171.865s-.326-9.611,5.376-17.593c0,0,1.628-3.1-1.141-4.887,0,0-9.936-7.786-5.049-11.044,0,0,3.42-2.639,12.705,7.3,0,0,9.123,9.123,4.724,27.693,0,0-3.258,7.819-11.239,6.516C196.9,179.847,191.023,177.4,191.526,171.865Z"/><path class="d" d="M162.085,147.16l1.592,4.249c4.229,8.972-1.146,9.705-1.146,9.705s4.724,2.769,4.724,6.678c0,0-.652,7-9.123,1.3,0,0-4.559-2.656-3.746-7.33.651-3.746,4.724-1.792,4.724-1.792-9.937-10.262-2.118-12.38-2.118-12.38s-4.4-1.3-2.821-8.307,6.542-2.607,6.542-2.607S165.832,140.318,162.085,147.16Z"/><path class="i" d="M162.053,107.429v16.03h33.914v-16.03Zm31.166,13.7H164.8V109.763h28.418Z"/></g><g transform="translate(55 237)"><path class="e" d="M0,0V250H250V0ZM243.336,158.14c-13.624,50.919-52.31,91.6-133.319,91.859C9.161,250.319,1.007,179.824.009,111.515-1.144,32.643,113.893,7.865,176.517.463,244.8-7.609,261.112,91.708,243.336,158.14Z"/></g><g transform="translate(0 14)"><g transform="translate(55 223)"><g class="j"><g class="j"><path class="e" d="M0,250H250V0H0Zm243.337-91.86c-13.625,50.92-52.311,91.6-133.32,91.859C9.162,250.319,1.007,179.823.009,111.515-1.143,32.643,113.894,7.865,176.517.462c68.283-8.071,84.6,91.245,66.82,157.677"/><path class="e" d="M107.59,114.118H92.254a1,1,0,0,1-1-1V93.075a1,1,0,0,1,1-1H107.59a1,1,0,0,1,1,1v20.043a1,1,0,0,1-1,1"/><rect class="n" width="11.984" height="6.316" transform="translate(93.931 94.794)"/><line class="o" y2="7.241" transform="translate(94.258 103.702)"/><line class="o" y2="7.241" transform="translate(95.361 103.702)"/><line class="o" y2="7.241" transform="translate(96.75 103.702)"/><line class="o" y2="7.241" transform="translate(97.852 103.702)"/><line class="o" y2="7.241" transform="translate(99.406 103.702)"/><line class="o" y2="7.241" transform="translate(100.509 103.702)"/><line class="o" y2="7.241" transform="translate(101.897 103.702)"/><line class="o" y2="7.241" transform="translate(103 103.702)"/><line class="o" y2="7.241" transform="translate(104.313 103.702)"/><line class="o" y2="7.241" transform="translate(105.915 103.702)"/></g></g></g></g><g class="j" transform="translate(55 237)"></g></g></svg>