<svg xmlns="http://www.w3.org/2000/svg" viewBox="0 0 228 228"><defs><style>.cls-1{fill:#d9d9d9;}.cls-2{fill:#fff;}.cls-3{fill:#e5274b;}.cls-4{opacity:0.16;isolation:isolate;}.cls-5{fill:#1a1a1a;}.cls-6{fill:#fc0;}.cls-7{opacity:0.16;}.cls-8{fill:#1d1d1b;}</style></defs><g id="Capa_2" data-name="Capa 2"><g id="Oso"><path class="cls-1" d="M221.92,144.23c-12.43,46.43-47.7,83.54-121.58,83.77C8.36,228.29.92,164,0,101.7-1,29.78,103.87,7.17,161,.42,223.26-6.93,238.13,83.64,221.92,144.23Z"/><path class="cls-2" d="M100.34,228c22.3-.07,41.06-3.52,56.76-9.55-.79-37.25-19.06-40.49-38.31-48.6C94.36,159.57,71.4,150,42.22,215.08,56.33,223.31,75.16,228.08,100.34,228Z"/><path class="cls-2" d="M118.83,34.6c10-4.29,21.83,1,26.51,11.83s2.14,20.25-14.57,16.71c-10.62-2.26-18.1,6.73-21.52-1.13C104.52,51.19,108.86,38.9,118.83,34.6Z"/><path class="cls-1" d="M137.07,56.43c2.27,6.88-6.31.83-13.18,3.1s-7.39,5-8.65.39c-1.89-7-.29-12.41,6.57-14.68S134.8,49.56,137.07,56.43Z"/><path class="cls-2" d="M13.26,129.15a16.27,16.27,0,1,1,27.9-16.73,31.92,31.92,0,0,0,28.49,16h-.21l2.83,32.42C70.7,161,34.05,163.79,13.26,129.15Z"/><path class="cls-3" d="M63.62,124.81l17.63,3.93c11.39,2.55,18.74,13,16.43,23.45L97,155.32c-2.34,10.41-13.43,16.8-24.81,14.27l-17.63-3.93Z"/><g class="cls-4"><path class="cls-5" d="M63.62,124.81l17.63,3.93c11.39,2.55,18.74,13,16.43,23.45L97,155.32c-2.34,10.41-13.43,16.8-24.81,14.27l-17.63-3.93Z"/></g><path class="cls-3" d="M88.06,138.47s-22.29,10.34-39.12,31.61c0,0,51.38,51.42,130.38,46.57,0,0-3.46-42.15-11.83-53.12C167.48,163.53,139.35,121.59,88.06,138.47Z"/><circle class="cls-2" cx="149.73" cy="105.7" r="63.14"/><circle class="cls-2" cx="115.42" cy="121.13" r="27.12"/><path class="cls-1" d="M106.13,147.14a27.62,27.62,0,1,1,35.3-16.72A27.65,27.65,0,0,1,106.13,147.14Zm18.24-51.08a26.62,26.62,0,1,0,16.12,34A26.64,26.64,0,0,0,124.37,96.06Z"/><circle class="cls-5" cx="111.72" cy="111.33" r="10.37"/><circle class="cls-5" cx="119.11" cy="85.08" r="4.36"/><circle class="cls-5" cx="150.22" cy="101.41" r="4.36"/><path class="cls-3" d="M93.23,138.17s26.27,29,82.36,25.5l-20,35.37S67.45,191.31,93.23,138.17Z"/><path class="cls-3" d="M202.7,66.52c-5.54,15.48-37.63,18.53-64.47,3-15.77-9.15-13.38-23.68,1.44-25.63C157.38,41.51,163.8,22.61,181,28.76S208.23,51,202.7,66.52Z"/><path class="cls-3" d="M203.54,64.16c-5.1,14.27-15.8,3.71-31.64-1.95s-30.81-4.27-25.72-18.54,22.07-21.24,37.91-15.59S208.64,49.89,203.54,64.16Z"/><path class="cls-2" d="M162.72,34.66c.62-1.4.1-1.67-.4-1.92-.29-.14-.82-.4-.58-1a.6.6,0,0,1,.82-.27,2.92,2.92,0,0,0,.34.16c.39.2,1,.53,2,1,.58.25,1,.4,1.34.54s.77.28,1.34.54c4.07,1.78,5.77,4.51,4.5,7.28a5.53,5.53,0,0,1-5,3l-.26,0h0a22.57,22.57,0,0,0,1.46,5.9,7.74,7.74,0,0,0,2.62,3.57.47.47,0,0,1,.2.57.4.4,0,0,1-.27.29c-.22.09-.57,0-1.68-.45-3.78-1.66-4.31-5.42-4.75-8.43-.05-.34-.09-.66-.14-1v-.07a2.43,2.43,0,0,0-.78-1.45l-.12-.12A.72.72,0,0,1,163,42a.53.53,0,0,1,.77-.23.63.63,0,0,1,.17.1,5.44,5.44,0,0,0,.66.31,3.88,3.88,0,0,0,2.92.18,3.35,3.35,0,0,0,2-1.8c1-2.25-.16-4.47-2.84-5.67-.88-.39-1-.37-1.1-.06l-4.88,10.8c-.83,1.84,0,2.36.62,2.78.34.21.8.5.58,1s-.93.24-1.22.1-.6-.29-.89-.43a16.42,16.42,0,0,0-1.57-.75c-.6-.26-1.12-.46-1.56-.63s-.7-.26-1-.4a.67.67,0,0,1-.44-.84c.19-.4.63-.33.95-.29.57.08,1.26.17,1.9-1.19"/><ellipse class="cls-3" cx="184.52" cy="26.86" rx="5.42" ry="5.57" transform="translate(97.15 191.6) rotate(-70.34)"/><path class="cls-2" d="M217.63,81.7c7,8.32,5.31,21.21-3.74,28.79s-18.79,7.83-20.18-9.18c-.88-10.81-11.64-15.41-5.09-21C197.65,72.75,210.65,73.39,217.63,81.7Z"/><path class="cls-1" d="M204.7,104.55c-5.66,4-2.93-6.18-7.41-12.59S190,85.7,194,83.31c5.9-3.59,11.53-3.28,16,3.13S210.36,100.6,204.7,104.55Z"/><path class="cls-5" d="M106.28,129.06a6.48,6.48,0,0,1,4.44,8.62c-1.41,4-5.34,6.18-10.2,3.08-2.49-1.6.28-4.31-.3-6.26C99,130.56,100.91,127.39,106.28,129.06Z"/><rect class="cls-6" x="31.82" y="77.06" width="36.78" height="58.28" transform="translate(21.37 -7.68) rotate(11.09)"/><rect class="cls-6" x="67.95" y="82.65" width="21.47" height="58.28" transform="translate(22.98 -13.05) rotate(11.09)"/><g class="cls-7"><rect class="cls-8" x="67.95" y="82.65" width="21.47" height="58.28" transform="translate(22.98 -13.05) rotate(11.09)"/></g><rect class="cls-6" x="6.54" y="134.85" width="70.69" height="74.89" transform="translate(33.94 -4.84) rotate(11.09)"/><rect class="cls-6" x="76.1" y="145.6" width="41.26" height="74.89" transform="translate(37.03 -15.19) rotate(11.09)"/><g class="cls-7"><rect class="cls-8" x="76.1" y="145.6" width="41.26" height="74.89" transform="translate(37.03 -15.19) rotate(11.09)"/></g><path class="cls-5" d="M31.88,164.2c.34-1.82-.35-2-1-2.15-.38-.08-1.07-.24-.95-1a.71.71,0,0,1,.88-.55c.09,0,.24.06.45.09.51.13,1.38.33,2.61.58.75.13,1.25.2,1.73.25s1,.12,1.72.26c5.3.94,8.06,3.67,7.36,7.28a6.7,6.7,0,0,1-5,4.9l-.3.11h0a27.42,27.42,0,0,0,3.39,6.53A9.32,9.32,0,0,0,46.78,184a.59.59,0,0,1,.4.62A.43.43,0,0,1,47,185c-.24.17-.66.21-2.1,0-4.91-.89-6.61-5.16-8-8.57l-.45-1.12,0-.07a2.86,2.86,0,0,0-1.33-1.49,1.51,1.51,0,0,0-.17-.1.86.86,0,0,1-.58-.94.63.63,0,0,1,.83-.48,1,1,0,0,1,.24.06,3.72,3.72,0,0,0,.86.18,4.68,4.68,0,0,0,3.48-.61,4,4,0,0,0,1.79-2.67c.5-2.92-1.45-5.22-4.94-5.86-1.15-.21-1.24-.16-1.31.24l-2.68,14.08c-.46,2.39.65,2.78,1.52,3.08.46.16,1.08.37,1,1s-1,.55-1.41.47-.79-.17-1.17-.26-1.05-.26-2.06-.43c-.78-.14-1.45-.22-2-.3s-.89-.11-1.27-.19a.8.8,0,0,1-.75-.87c.1-.52.64-.56,1-.6.69-.07,1.54-.16,1.9-1.95"/><path class="cls-5" d="M44.81,100.91c.26-1.39-.27-1.52-.77-1.64-.3-.07-.83-.19-.73-.75A.54.54,0,0,1,44,98.1l.35.07c.39.09,1.06.25,2,.44.57.1.95.15,1.33.19s.75.1,1.32.2c4.07.73,6.19,2.82,5.65,5.6a5.14,5.14,0,0,1-3.85,3.76l-.23.08h0a21.08,21.08,0,0,0,2.6,5,7.14,7.14,0,0,0,3.14,2.66.43.43,0,0,1,.3.47.34.34,0,0,1-.18.32c-.18.13-.5.16-1.61,0-3.78-.69-5.08-4-6.13-6.59-.12-.3-.22-.58-.34-.86l0-.06a2.27,2.27,0,0,0-1-1.14l-.14-.08a.66.66,0,0,1-.44-.72.49.49,0,0,1,.64-.37l.18,0a3,3,0,0,0,.66.14,3.65,3.65,0,0,0,2.68-.47,3.11,3.11,0,0,0,1.37-2c.39-2.25-1.11-4-3.8-4.51-.88-.16-1-.12-1,.19l-2.06,10.82c-.35,1.84.5,2.13,1.16,2.37.36.12.84.28.74.76s-.78.42-1.08.35-.6-.13-.9-.19-.81-.2-1.58-.33c-.6-.11-1.11-.17-1.55-.23s-.69-.09-1-.15a.62.62,0,0,1-.57-.67c.07-.4.49-.43.79-.46.53-.05,1.18-.12,1.46-1.49"/><path class="cls-2" d="M87.75,194.24a16.27,16.27,0,0,1,18-27.09,31.91,31.91,0,0,0,32.61,2.23l-.18.09,16.49,28.05C153.32,198.31,121.42,216.58,87.75,194.24Z"/><path class="cls-3" d="M131.37,168.66l17.6-4c11.38-2.59,22.51,3.71,24.9,14.11l.72,3.13c2.37,10.4-4.91,20.93-16.26,23.54l-17.6,4Z"/></g></g></svg>