<svg xmlns="http://www.w3.org/2000/svg" width="63.301" height="63.772" viewBox="0 0 63.301 63.772"><defs><style>.a{fill:#ff0094;}</style></defs><path class="a" d="M152.014,172.654c0-.234-.292-.315-.292-.315-3-.546-5.8-2.635-7.911-4.842a51.794,51.794,0,0,1-7.481-10.388c-.338-.775.14-.852.14-.852v0a10.87,10.87,0,0,0,6.778-9.675c0-7.38-6.988-9.574-13.276-9.574-2.381,0-3.169.194-5.651.194-2.885,0-4.611-.194-5.065-.194a.69.69,0,0,0-.65.745c0,1.786,4.065-1.237,4.065,4.72V166.23c0,5.5-3.866,3.967-3.866,5.3,0,.437.509.593.8.593,1.438,0,3.064-.195,5.4-.195,2.932,0,3.674.195,5.357.195,1.238,0,1.439-.242,1.439-.593,0-1.682-5.2.9-5.2-6.252V140.24c0-1.494,1.085-1.494,2.665-1.494,5.713,0,10.225,3.168,10.318,9.182a7.743,7.743,0,0,1-8.034,7.922,9.778,9.778,0,0,1-1.794-.1c-.234,0-.491.1-.491.433,0,.468.368.7.8.818a5.4,5.4,0,0,1,3.168,2.488c3.381,5.543,7.182,13.846,15.863,13.846C152.335,173.339,152.014,172.953,152.014,172.654Zm-1.03-49.369v3.536h9.136V136.85h3.536V123.285Zm-50.57,13.565h3.536V126.821h9.136v-3.536H100.414Zm3.477,36.643h-3.536v13.565h12.672v-3.537h-9.136Zm56.178,10.028h-9.136v3.537h12.672V173.493h-3.536Z" transform="translate(-100.355 -123.285)"/></svg>